<svg width="24" height="24" viewBox="0 0 24 24" fill="none" xmlns="http://www.w3.org/2000/svg" role="img" aria-label="Feishu">
  <!-- Official Feishu brand mark (three-color bird). Brand blues: #3370FF, #133C9A; accent #00D6B9 -->
  <path
    d="M12.92 12.8C12.94 12.78 12.96 12.77 12.98 12.75C13.02 12.71 13.06 12.68 13.09 12.64L13.17 12.56L13.4 12.34L14.73 11.02L15.07 10.69C15.13 10.62 15.2 10.56 15.26 10.5C15.38 10.39 15.51 10.29 15.64 10.18C15.75 10.09 15.88 10 16 9.91C16.17 9.78 16.35 9.67 16.53 9.56C16.71 9.45 16.9 9.35 17.09 9.26C17.26 9.18 17.44 9.1 17.63 9.03C17.73 8.99 17.83 8.95 17.94 8.91C17.99 8.89 18.04 8.88 18.1 8.86C17.63 7 16.76 5.3 15.6 3.85C15.37 3.57 15.02 3.4 14.66 3.4H5.01C4.83 3.4 4.76 3.63 4.9 3.73C8.19 6.14 10.92 9.24 12.9 12.83C12.91 12.82 12.92 12.81 12.92 12.8Z"
    fill="#00D6B9"
  />
  <path
    d="M9.1 21.3C14.08 21.3 18.42 18.55 20.69 14.48C20.77 14.34 20.85 14.2 20.92 14.05C20.8 14.27 20.68 14.48 20.54 14.68C20.49 14.75 20.44 14.82 20.39 14.88C20.32 14.97 20.26 15.05 20.19 15.13C20.13 15.19 20.08 15.25 20.02 15.31C19.9 15.43 19.78 15.55 19.66 15.65C19.59 15.71 19.51 15.77 19.44 15.83C19.36 15.89 19.27 15.96 19.18 16.01C19.12 16.05 19.07 16.09 19.01 16.12C18.95 16.16 18.89 16.2 18.83 16.23C18.7 16.3 18.57 16.36 18.44 16.42C18.33 16.47 18.22 16.52 18.1 16.56C17.97 16.61 17.85 16.65 17.72 16.69C17.52 16.74 17.32 16.78 17.13 16.81C16.98 16.83 16.84 16.85 16.69 16.86C16.53 16.87 16.38 16.88 16.22 16.88C16.04 16.87 15.87 16.86 15.69 16.84C15.56 16.83 15.44 16.81 15.31 16.79C15.19 16.77 15.08 16.74 14.96 16.72C14.9 16.7 14.85 16.69 14.79 16.67C14.62 16.63 14.45 16.58 14.29 16.53C14.21 16.51 14.13 16.49 14.04 16.46C13.92 16.42 13.8 16.39 13.68 16.35C13.58 16.32 13.48 16.29 13.38 16.26C13.28 16.23 13.19 16.19 13.09 16.16C13.03 16.14 12.96 16.12 12.9 16.1C12.82 16.07 12.75 16.04 12.67 16.01C12.61 16 12.56 15.98 12.5 15.95C12.39 15.91 12.28 15.88 12.17 15.83C12.11 15.81 12.05 15.79 11.98 15.76C11.9 15.73 11.81 15.7 11.73 15.66C11.64 15.63 11.55 15.59 11.46 15.56C11.41 15.53 11.35 15.51 11.29 15.49C11.22 15.46 11.15 15.43 11.08 15.4C11.02 15.38 10.96 15.35 10.91 15.33C10.85 15.3 10.8 15.28 10.74 15.25C10.69 15.23 10.64 15.21 10.59 15.19C10.55 15.17 10.5 15.15 10.46 15.13C10.41 15.11 10.37 15.09 10.32 15.06C10.27 15.04 10.22 15.02 10.18 15C10.12 14.97 10.06 14.94 10 14.92C9.93 14.89 9.87 14.86 9.81 14.83C9.74 14.8 9.68 14.77 9.61 14.73C9.55 14.7 9.5 14.67 9.44 14.65C6.45 13.16 3.8 11.17 1.54 8.76C1.43 8.64 1.23 8.72 1.23 8.88L1.24 18.09C1.24 18.49 1.44 18.87 1.77 19.09C3.87 20.49 6.39 21.3 9.1 21.3Z"
    fill="#3370FF"
  />
  <path
    d="M23.73 9.29C22.72 8.8 21.58 8.52 20.38 8.52C19.67 8.52 18.97 8.62 18.32 8.8C18.25 8.82 18.17 8.85 18.1 8.87C18.04 8.88 17.99 8.9 17.94 8.92C17.84 8.95 17.73 8.99 17.63 9.03C17.44 9.11 17.26 9.18 17.09 9.27C16.9 9.36 16.71 9.46 16.53 9.57C16.35 9.67 16.17 9.79 16 9.91C15.88 10 15.76 10.09 15.64 10.19C15.51 10.29 15.38 10.4 15.26 10.51C15.2 10.57 15.13 10.63 15.07 10.69L14.73 11.02L13.39 12.34L13.16 12.57L13.09 12.65C13.05 12.68 13.01 12.72 12.98 12.76C12.96 12.77 12.94 12.79 12.92 12.81C12.89 12.84 12.86 12.86 12.84 12.89C12.8 12.92 12.77 12.95 12.74 12.98C11.91 13.74 10.99 14.39 9.99 14.92C10.05 14.95 10.11 14.98 10.17 15.01C10.22 15.03 10.27 15.05 10.31 15.07C10.36 15.09 10.41 15.11 10.45 15.13C10.5 15.15 10.55 15.18 10.59 15.19C10.64 15.22 10.69 15.24 10.74 15.26C10.79 15.29 10.85 15.31 10.91 15.34C10.96 15.36 11.02 15.38 11.07 15.41C11.14 15.44 11.21 15.47 11.29 15.49C11.34 15.52 11.4 15.54 11.46 15.56C11.55 15.6 11.64 15.64 11.73 15.67C11.81 15.7 11.9 15.74 11.98 15.77C12.04 15.79 12.11 15.82 12.17 15.84C12.28 15.88 12.39 15.92 12.5 15.96C12.55 15.98 12.61 16 12.67 16.02C12.74 16.05 12.82 16.07 12.9 16.1C12.96 16.13 13.03 16.15 13.09 16.17C13.19 16.2 13.28 16.23 13.38 16.26C13.47 16.3 13.57 16.33 13.67 16.36C13.8 16.4 13.92 16.43 14.04 16.47C14.12 16.49 14.2 16.52 14.29 16.54C14.45 16.59 14.62 16.64 14.78 16.68C14.84 16.7 14.9 16.71 14.96 16.72C15.08 16.75 15.19 16.77 15.3 16.79C15.43 16.82 15.56 16.83 15.69 16.85C15.87 16.87 16.04 16.88 16.21 16.88C16.37 16.89 16.53 16.88 16.68 16.87C16.83 16.86 16.98 16.84 17.12 16.82C17.32 16.79 17.52 16.75 17.71 16.69C17.84 16.66 17.97 16.62 18.1 16.57C18.21 16.53 18.33 16.48 18.44 16.43C18.57 16.37 18.7 16.3 18.82 16.24C18.88 16.2 18.95 16.17 19.01 16.13C19.06 16.09 19.12 16.06 19.18 16.02C19.27 15.96 19.35 15.89 19.44 15.83C19.51 15.77 19.58 15.72 19.65 15.66C19.78 15.55 19.9 15.43 20.02 15.31C20.07 15.25 20.13 15.19 20.18 15.13C20.25 15.05 20.32 14.97 20.38 14.89C20.44 14.82 20.49 14.75 20.54 14.68C20.67 14.48 20.8 14.28 20.91 14.06L21.04 13.8L22.21 11.47L22.21 11.48C22.58 10.66 23.1 9.92 23.73 9.29Z"
    fill="#133C9A"
  />
</svg>
